{
  "accessors": [
    {
      "bufferView": 2,
      "componentType": 5126,
      "count": 3591,
      "max": [
        1.0,
        1.0,
        1.0
      ],
      "min": [
        -1.0,
        -1.0,
        -1.0
      ],
      "type": "VEC3"
    },
    {
      "bufferView": 2,
      "byteOffset": 43092,
      "componentType": 5126,
      "count": 3591,
      "max": [
        1.0,
        1.0,
        1.0
      ],
      "min": [
        -1.0,
        -1.0,
        -1.0
      ],
      "type": "VEC3"
    },
    {
      "bufferView": 1,
      "componentType": 5126,
      "count": 3591,
      "max": [
        1.0,
        1.002861499786377
      ],
      "min": [
        0.0,
        -0.09722721576690674
      ],
      "type": "VEC2"
    },
    {
      "bufferView": 0,
      "componentType": 5125,
      "count": 6252,
      "type": "SCALAR"
    },
    {
      "bufferView": 2,
      "byteOffset": 86184,
      "componentType": 5126,
      "count": 5062,
      "max": [
        0.9964950680732727,
        2.4178543090820313,
        0.9999961256980896
      ],
      "min": [
        -1.003504991531372,
        0.41785430908203125,
        -1.000003695487976
      ],
      "type": "VEC3"
    },
    {
      "bufferView": 2,
      "byteOffset": 146928,
      "componentType": 5126,
      "count": 5062,
      "max": [
        1.0,
        1.0,
        1.0
      ],
      "min": [
        -1.0,
        -1.0,
        -1.0
      ],
      "type": "VEC3"
    },
    {
      "bufferView": 1,
      "byteOffset": 28728,
      "componentType": 5126,
      "count": 5062,
      "max": [
        0.8750000596046448,
        1.0
      ],
      "min": [
        0.1249999925494194,
        0.0
      ],
      "type": "VEC2"
    },
    {
      "bufferView": 0,
      "byteOffset": 25008,
      "componentType": 5125,
      "count": 11664,
      "type": "SCALAR"
    },
    {
      "bufferView": 2,
      "byteOffset": 207672,
      "componentType": 5126,
      "count": 116,
      "max": [
        1.7860887050628662,
        155.98403930664063,
        0.37064117193222046
      ],
      "min": [
        1.5661344528198242,
        113.40955352783203,
        -0.37293487787246704
      ],
      "type": "VEC3"
    },
    {
      "bufferView": 2,
      "byteOffset": 209064,
      "componentType": 5126,
      "count": 116,
      "max": [
        0.9842273592948914,
        0.8970630764961243,
        0.9732918739318848
      ],
      "min": [
        -0.9842273592948914,
        -0.8556017279624939,
        -0.9732694625854492
      ],
      "type": "VEC3"
    },
    {
      "bufferView": 1,
      "byteOffset": 69224,
      "componentType": 5126,
      "count": 116,
      "max": [
        0.8750000596046448,
        1.0
      ],
      "min": [
        0.1249999925494194,
        0.0
      ],
      "type": "VEC2"
    },
    {
      "bufferView": 0,
      "byteOffset": 71664,
      "componentType": 5125,
      "count": 468,
      "type": "SCALAR"
    },
    {
      "bufferView": 2,
      "byteOffset": 210456,
      "componentType": 5126,
      "count": 65534,
      "max": [
        1.9178361892700195,
        171.92120361328125,
        1.025589942932129
      ],
      "min": [
        -1.029958724975586,
        -11.710594177246094,
        -1.0260097980499268
      ],
      "type": "VEC3"
    },
    {
      "bufferView": 2,
      "byteOffset": 996864,
      "componentType": 5126,
      "count": 65534,
      "max": [
        1.0,
        1.0,
        1.0
      ],
      "min": [
        -1.0,
        -1.0,
        -1.0
      ],
      "type": "VEC3"
    },
    {
      "bufferView": 1,
      "byteOffset": 70152,
      "componentType": 5126,
      "count": 65534,
      "max": [
        4.271707534790039,
        4.494015693664551
      ],
      "min": [
        0.0,
        0.0
      ],
      "type": "VEC2"
    },
    {
      "bufferView": 0,
      "byteOffset": 73536,
      "componentType": 5125,
      "count": 176217,
      "type": "SCALAR"
    },
    {
      "bufferView": 2,
      "byteOffset": 1783272,
      "componentType": 5126,
      "count": 6830,
      "max": [
        0.11729234457015991,
        -4.717445373535156,
        0.49499714374542236
      ],
      "min": [
        -0.1521887183189392,
        -5.148887634277344,
        -0.5944250822067261
      ],
      "type": "VEC3"
    },
    {
      "bufferView": 2,
      "byteOffset": 1865232,
      "componentType": 5126,
      "count": 6830,
      "max": [
        1.0,
        0.9340963959693909,
        0.999995231628418
      ],
      "min": [
        -1.0,
        -0.9916110634803772,
        -0.9999865293502808
      ],
      "type": "VEC3"
    },
    {
      "bufferView": 1,
      "byteOffset": 594424,
      "componentType": 5126,
      "count": 6830,
      "max": [
        1.0,
        1.0
      ],
      "min": [
        0.8042069673538208,
        0.007979869842529297
      ],
      "type": "VEC2"
    },
    {
      "bufferView": 0,
      "byteOffset": 778404,
      "componentType": 5125,
      "count": 10560,
      "type": "SCALAR"
    },
    {
      "bufferView": 2,
      "byteOffset": 1947192,
      "componentType": 5126,
      "count": 544,
      "max": [
        1.8525927066802979,
        149.12469482421875,
        0.8409106731414795
      ],
      "min": [
        1.1213328838348389,
        5.915885925292969,
        -0.8413269519805908
      ],
      "type": "VEC3"
    },
    {
      "bufferView": 2,
      "byteOffset": 1953720,
      "componentType": 5126,
      "count": 544,
      "max": [
        0.9997956156730652,
        0.9999879598617554,
        0.9864071011543274
      ],
      "min": [
        -0.9997956156730652,
        -0.9999879598617554,
        -0.9864071011543274
      ],
      "type": "VEC3"
    },
    {
      "bufferView": 1,
      "byteOffset": 649064,
      "componentType": 5126,
      "count": 544,
      "max": [
        1.0,
        1.0
      ],
      "min": [
        0.0,
        0.0
      ],
      "type": "VEC2"
    },
    {
      "bufferView": 0,
      "byteOffset": 820644,
      "componentType": 5125,
      "count": 1488,
      "type": "SCALAR"
    },
    {
      "bufferView": 2,
      "byteOffset": 1960248,
      "componentType": 5126,
      "count": 520,
      "max": [
        1.8566513061523438,
        147.9512939453125,
        0.8343164920806885
      ],
      "min": [
        1.134206771850586,
        6.281471252441406,
        -0.834730863571167
      ],
      "type": "VEC3"
    },
    {
      "bufferView": 2,
      "byteOffset": 1966488,
      "componentType": 5126,
      "count": 520,
      "max": [
        0.9997956156730652,
        0.9999879598617554,
        0.9864071011543274
      ],
      "min": [
        -0.9997956156730652,
        -0.9999879598617554,
        -0.9864071011543274
      ],
      "type": "VEC3"
    },
    {
      "bufferView": 1,
      "byteOffset": 653416,
      "componentType": 5126,
      "count": 520,
      "max": [
        1.0,
        0.9900000095367432
      ],
      "min": [
        0.0,
        0.0
      ],
      "type": "VEC2"
    },
    {
      "bufferView": 0,
      "byteOffset": 826596,
      "componentType": 5125,
      "count": 1488,
      "type": "SCALAR"
    },
    {
      "bufferView": 2,
      "byteOffset": 1972728,
      "componentType": 5126,
      "count": 29940,
      "max": [
        1.5111000537872314,
        100.73768615722656,
        0.9478623867034912
      ],
      "min": [
        1.0999829769134521,
        21.340187072753906,
        -0.9596360325813293
      ],
      "type": "VEC3"
    },
    {
      "bufferView": 2,
      "byteOffset": 2332008,
      "componentType": 5126,
      "count": 29940,
      "max": [
        1.0,
        1.0,
        1.0
      ],
      "min": [
        -1.0,
        -1.0,
        -1.0
      ],
      "type": "VEC3"
    },
    {
      "bufferView": 1,
      "byteOffset": 657576,
      "componentType": 5126,
      "count": 29940,
      "max": [
        0.875,
        1.0
      ],
      "min": [
        0.1249999925494194,
        0.0
      ],
      "type": "VEC2"
    },
    {
      "bufferView": 0,
      "byteOffset": 832548,
      "componentType": 5125,
      "count": 44556,
      "type": "SCALAR"
    },
    {
      "bufferView": 2,
      "byteOffset": 2691288,
      "componentType": 5126,
      "count": 211,
      "max": [
        1.6988205909729004,
        123.27564239501953,
        1.0162285566329956
      ],
      "min": [
        1.0649936199188232,
        4.888618469238281,
        -1.0166929960250854
      ],
      "type": "VEC3"
    },
    {
      "bufferView": 2,
      "byteOffset": 2693820,
      "componentType": 5126,
      "count": 211,
      "max": [
        1.0,
        0.004999937489628792,
        0.9999992847442627
      ],
      "min": [
        -0.9999874830245972,
        -0.022800903767347336,
        -0.9999992847442627
      ],
      "type": "VEC3"
    },
    {
      "bufferView": 1,
      "byteOffset": 897096,
      "componentType": 5126,
      "count": 211,
      "max": [
        0.8125,
        1.0
      ],
      "min": [
        0.125,
        0.009338557720184326
      ],
      "type": "VEC2"
    },
    {
      "bufferView": 0,
      "byteOffset": 1010772,
      "componentType": 5125,
      "count": 327,
      "type": "SCALAR"
    },
    {
      "bufferView": 2,
      "byteOffset": 2696352,
      "componentType": 5126,
      "count": 5134,
      "max": [
        -0.8729320168495178,
        1.2437254190444946,
        0.10264076292514801
      ],
      "min": [
        -0.9516262412071228,
        -1.3117185831069946,
        -0.1026405543088913
      ],
      "type": "VEC3"
    },
    {
      "bufferView": 2,
      "byteOffset": 2757960,
      "componentType": 5126,
      "count": 5134,
      "max": [
        1.0,
        1.0,
        1.0
      ],
      "min": [
        -1.0,
        -1.0,
        -1.0
      ],
      "type": "VEC3"
    },
    {
      "bufferView": 1,
      "byteOffset": 898784,
      "componentType": 5126,
      "count": 5134,
      "max": [
        0.8750000596046448,
        1.0
      ],
      "min": [
        0.1249999925494194,
        0.0
      ],
      "type": "VEC2"
    },
    {
      "bufferView": 0,
      "byteOffset": 1012080,
      "componentType": 5125,
      "count": 11664,
      "type": "SCALAR"
    },
    {
      "bufferView": 2,
      "byteOffset": 2819568,
      "componentType": 5126,
      "count": 768,
      "max": [
        1.0076649188995361,
        -0.0858621597290039,
        0.5948886871337891
      ],
      "min": [
        0.936552107334137,
        -7.087924003601074,
        -0.6250592470169067
      ],
      "type": "VEC3"
    },
    {
      "bufferView": 2,
      "byteOffset": 2828784,
      "componentType": 5126,
      "count": 768,
      "max": [
        1.0,
        0.2671944200992584,
        1.0
      ],
      "min": [
        -1.0,
        -0.2671944200992584,
        -1.0
      ],
      "type": "VEC3"
    },
    {
      "bufferView": 1,
      "byteOffset": 939856,
      "componentType": 5126,
      "count": 768,
      "max": [
        1.0,
        0.9900000095367432
      ],
      "min": [
        0.0,
        0.0
      ],
      "type": "VEC2"
    },
    {
      "bufferView": 0,
      "byteOffset": 1058736,
      "componentType": 5125,
      "count": 1488,
      "type": "SCALAR"
    },
    {
      "bufferView": 2,
      "byteOffset": 2838000,
      "componentType": 5126,
      "count": 59904,
      "max": [
        1.0626018047332764,
        12.545007705688477,
        0.9471314549446106
      ],
      "min": [
        1.0175702571868896,
        4.38648796081543,
        -0.942105770111084
      ],
      "type": "VEC3"
    },
    {
      "bufferView": 2,
      "byteOffset": 3556848,
      "componentType": 5126,
      "count": 59904,
      "max": [
        0.9999874830245972,
        0.020201176404953003,
        0.9994215965270996
      ],
      "min": [
        -0.9999874830245972,
        -0.020201176404953003,
        -0.9994215965270996
      ],
      "type": "VEC3"
    },
    {
      "bufferView": 1,
      "byteOffset": 946000,
      "componentType": 5126,
      "count": 59904,
      "max": [
        1.0,
        0.9900000095367432
      ],
      "min": [
        0.0,
        0.0
      ],
      "type": "VEC2"
    },
    {
      "bufferView": 0,
      "byteOffset": 1064688,
      "componentType": 5125,
      "count": 116064,
      "type": "SCALAR"
    }
  ],
  "asset": {
    "extras": {
      "author": "Manhattanese (https://sketchfab.com/_bunsassdesign.org)",
      "license": "CC-BY-NC-4.0 (http://creativecommons.org/licenses/by-nc/4.0/)",
      "source": "https://sketchfab.com/3d-models/2026-manhattabook-zone-3-404770b3dd194c6fba93d9329e710154",
      "title": "2026 Manhattabook Zone 3"
    },
    "generator": "Sketchfab-17.8.0",
    "version": "2.0"
  },
  "bufferViews": [
    {
      "buffer": 0,
      "byteLength": 1528944,
      "name": "floatBufferViews",
      "target": 34963
    },
    {
      "buffer": 0,
      "byteLength": 1425232,
      "byteOffset": 1528944,
      "byteStride": 8,
      "name": "floatBufferViews",
      "target": 34962
    },
    {
      "buffer": 0,
      "byteLength": 4275696,
      "byteOffset": 2954176,
      "byteStride": 12,
      "name": "floatBufferViews",
      "target": 34962
    }
  ],
  "buffers": [
    {
      "byteLength": 7229872,
      "uri": "scene.bin"
    }
  ],
  "extensionsUsed": [
    "KHR_materials_clearcoat",
    "KHR_materials_transmission"
  ],
  "images": [
    {
      "uri": "textures/Material.005_baseColor.jpeg"
    },
    {
      "uri": "textures/Material.011_baseColor.jpeg"
    },
    {
      "uri": "textures/Material.013_baseColor.jpeg"
    }
  ],
  "materials": [
    {
      "doubleSided": true,
      "extensions": {
        "KHR_materials_clearcoat": {
          "clearcoatFactor": 1.0,
          "clearcoatRoughnessFactor": 0.04
        }
      },
      "name": "Material.005",
      "pbrMetallicRoughness": {
        "baseColorTexture": {
          "index": 0
        },
        "metallicFactor": 0.0,
        "roughnessFactor": 0.5
      }
    },
    {
      "alphaMode": "BLEND",
      "doubleSided": true,
      "extensions": {
        "KHR_materials_transmission": {
          "transmissionFactor": 1.0
        }
      },
      "name": "Material.003",
      "pbrMetallicRoughness": {
        "baseColorFactor": [
          0.0884713,
          0.0884713,
          0.0884713,
          0.25
        ],
        "metallicFactor": 0.17727299999999999,
        "roughnessFactor": 0.143182
      }
    },
    {
      "doubleSided": true,
      "name": "Material.008",
      "pbrMetallicRoughness": {
        "metallicFactor": 0.518182,
        "roughnessFactor": 0.447727
      }
    },
    {
      "doubleSided": true,
      "name": "Material.007",
      "pbrMetallicRoughness": {
        "metallicFactor": 0.531818,
        "roughnessFactor": 0.356818
      }
    },
    {
      "doubleSided": true,
      "name": "Material.011",
      "pbrMetallicRoughness": {
        "baseColorTexture": {
          "index": 1
        },
        "metallicFactor": 0.306818,
        "roughnessFactor": 0.5
      }
    },
    {
      "doubleSided": true,
      "name": "Material.012",
      "pbrMetallicRoughness": {
        "baseColorFactor": [
          0.398081,
          0.398081,
          0.398081,
          1.0
        ],
        "metallicFactor": 0.568182,
        "roughnessFactor": 0.629545
      }
    },
    {
      "doubleSided": true,
      "name": "Material.009",
      "pbrMetallicRoughness": {
        "baseColorFactor": [
          0.0380603,
          0.0380603,
          0.0380603,
          1.0
        ],
        "metallicFactor": 0.575,
        "roughnessFactor": 0.334091
      }
    },
    {
      "doubleSided": true,
      "name": "Material.004",
      "pbrMetallicRoughness": {
        "baseColorFactor": [
          0.00187798,
          0.014264,
          0.0537558,
          1.0
        ],
        "metallicFactor": 0.225,
        "roughnessFactor": 0.454545
      }
    },
    {
      "doubleSided": true,
      "name": "Material.006",
      "pbrMetallicRoughness": {
        "baseColorFactor": [
          0.0,
          0.0,
          0.0,
          1.0
        ],
        "metallicFactor": 0.493182,
        "roughnessFactor": 0.0886364
      }
    },
    {
      "doubleSided": true,
      "name": "Material.010",
      "pbrMetallicRoughness": {
        "baseColorFactor": [
          0.263343,
          0.816206,
          1.0,
          1.0
        ],
        "metallicFactor": 0.131818,
        "roughnessFactor": 0.5
      }
    },
    {
      "doubleSided": true,
      "name": "Material.013",
      "pbrMetallicRoughness": {
        "baseColorTexture": {
          "index": 2
        },
        "metallicFactor": 0.318182,
        "roughnessFactor": 0.5
      }
    }
  ],
  "meshes": [
    {
      "name": "Object_0",
      "primitives": [
        {
          "attributes": {
            "NORMAL": 1,
            "POSITION": 0,
            "TEXCOORD_0": 2
          },
          "indices": 3,
          "material": 0,
          "mode": 4
        }
      ]
    },
    {
      "name": "Object_1",
      "primitives": [
        {
          "attributes": {
            "NORMAL": 5,
            "POSITION": 4,
            "TEXCOORD_0": 6
          },
          "indices": 7,
          "material": 1,
          "mode": 4
        }
      ]
    },
    {
      "name": "Object_2",
      "primitives": [
        {
          "attributes": {
            "NORMAL": 9,
            "POSITION": 8,
            "TEXCOORD_0": 10
          },
          "indices": 11,
          "material": 2,
          "mode": 4
        }
      ]
    },
    {
      "name": "Object_3",
      "primitives": [
        {
          "attributes": {
            "NORMAL": 13,
            "POSITION": 12,
            "TEXCOORD_0": 14
          },
          "indices": 15,
          "material": 3,
          "mode": 4
        }
      ]
    },
    {
      "name": "Object_4",
      "primitives": [
        {
          "attributes": {
            "NORMAL": 17,
            "POSITION": 16,
            "TEXCOORD_0": 18
          },
          "indices": 19,
          "material": 3,
          "mode": 4
        }
      ]
    },
    {
      "name": "Object_5",
      "primitives": [
        {
          "attributes": {
            "NORMAL": 21,
            "POSITION": 20,
            "TEXCOORD_0": 22
          },
          "indices": 23,
          "material": 4,
          "mode": 4
        }
      ]
    },
    {
      "name": "Object_6",
      "primitives": [
        {
          "attributes": {
            "NORMAL": 25,
            "POSITION": 24,
            "TEXCOORD_0": 26
          },
          "indices": 27,
          "material": 5,
          "mode": 4
        }
      ]
    },
    {
      "name": "Object_7",
      "primitives": [
        {
          "attributes": {
            "NORMAL": 29,
            "POSITION": 28,
            "TEXCOORD_0": 30
          },
          "indices": 31,
          "material": 6,
          "mode": 4
        }
      ]
    },
    {
      "name": "Object_8",
      "primitives": [
        {
          "attributes": {
            "NORMAL": 33,
            "POSITION": 32,
            "TEXCOORD_0": 34
          },
          "indices": 35,
          "material": 7,
          "mode": 4
        }
      ]
    },
    {
      "name": "Object_9",
      "primitives": [
        {
          "attributes": {
            "NORMAL": 37,
            "POSITION": 36,
            "TEXCOORD_0": 38
          },
          "indices": 39,
          "material": 8,
          "mode": 4
        }
      ]
    },
    {
      "name": "Object_10",
      "primitives": [
        {
          "attributes": {
            "NORMAL": 41,
            "POSITION": 40,
            "TEXCOORD_0": 42
          },
          "indices": 43,
          "material": 9,
          "mode": 4
        }
      ]
    },
    {
      "name": "Object_11",
      "primitives": [
        {
          "attributes": {
            "NORMAL": 45,
            "POSITION": 44,
            "TEXCOORD_0": 46
          },
          "indices": 47,
          "material": 10,
          "mode": 4
        }
      ]
    }
  ],
  "nodes": [
    {
      "children": [
        1
      ],
      "matrix": [
        1.0,
        0.0,
        0.0,
        0.0,
        0.0,
        2.220446049250313e-16,
        -1.0,
        0.0,
        0.0,
        1.0,
        2.220446049250313e-16,
        0.0,
        0.0,
        0.0,
        0.0,
        1.0
      ],
      "name": "Sketchfab_model"
    },
    {
      "children": [
        2
      ],
      "name": "root"
    },
    {
      "children": [
        3
      ],
      "matrix": [
        1.0,
        0.0,
        0.0,
        0.0,
        0.0,
        2.220446049250313e-16,
        1.0,
        0.0,
        0.0,
        -1.0,
        2.220446049250313e-16,
        0.0,
        0.0,
        0.0,
        0.0,
        1.0
      ],
      "name": "GLTF_SceneRootNode"
    },
    {
      "children": [
        4,
        5,
        6,
        7,
        8,
        9,
        10,
        11,
        12,
        13,
        14,
        15
      ],
      "matrix": [
        0.4061739259790957,
        -0.8323120006946846,
        1.2576335780836382e-08,
        0.0,
        0.008514019801056889,
        0.004154899659757761,
        3.1496831858935837e-06,
        0.0,
        -0.0003505632087635353,
        -0.0001710595055910477,
        1.1732726640774624,
        0.0,
        -1.2691410779953003,
        0.9405941963195801,
        0.0,
        1.0
      ],
      "name": "Cube.004_0"
    },
    {
      "mesh": 0,
      "name": "Object_4"
    },
    {
      "mesh": 1,
      "name": "Object_5"
    },
    {
      "mesh": 2,
      "name": "Object_6"
    },
    {
      "mesh": 3,
      "name": "Object_7"
    },
    {
      "mesh": 4,
      "name": "Object_8"
    },
    {
      "mesh": 5,
      "name": "Object_9"
    },
    {
      "mesh": 6,
      "name": "Object_10"
    },
    {
      "mesh": 7,
      "name": "Object_11"
    },
    {
      "mesh": 8,
      "name": "Object_12"
    },
    {
      "mesh": 9,
      "name": "Object_13"
    },
    {
      "mesh": 10,
      "name": "Object_14"
    },
    {
      "mesh": 11,
      "name": "Object_15"
    }
  ],
  "samplers": [
    {
      "magFilter": 9729,
      "minFilter": 9987,
      "wrapS": 10497,
      "wrapT": 10497
    }
  ],
  "scene": 0,
  "scenes": [
    {
      "name": "Sketchfab_Scene",
      "nodes": [
        0
      ]
    }
  ],
  "textures": [
    {
      "sampler": 0,
      "source": 0
    },
    {
      "sampler": 0,
      "source": 1
    },
    {
      "sampler": 0,
      "source": 2
    }
  ]
}
